<svg xmlns="http://www.w3.org/2000/svg" width="226.429" height="39.987" viewBox="0 0 226.429 39.987">
  <g id="Layer_1" data-name="Layer 1" transform="translate(0 0.003)">
    <g id="Group_210" data-name="Group 210" transform="translate(0 -0.003)">
      <g id="Group_207" data-name="Group 207">
        <path id="Path_2936" data-name="Path 2936" d="M34.016,23.733,18.382,14.528a1.1,1.1,0,0,0-1.12,0l-2.308,1.364a2.094,2.094,0,0,0,.007,3.6l2.817,1.65a4.005,4.005,0,0,1-.007,6.917L.59,38.063a1.109,1.109,0,0,0-.55.957v4.474a1.1,1.1,0,0,0,1.656.957L34.009,25.64a1.1,1.1,0,0,0,0-1.908Z" transform="translate(-0.013 -4.615)"/>
        <path id="Path_2937" data-name="Path 2937" d="M10.189,19.231a1.222,1.222,0,0,1-.081,2.05L1.853,26.162A1.229,1.229,0,0,1,0,25.1V1.228A1.229,1.229,0,0,1,1.853.169l8.336,4.908a1.233,1.233,0,0,1-.02,2.132s-9.287,5.438.02,12.022Z" transform="translate(0 0.003)" fill="#e22829"/>
      </g>
      <g id="Group_209" data-name="Group 209" transform="translate(45.096 9.56)">
        <g id="Group_208" data-name="Group 208">
          <path id="Path_2941" data-name="Path 2941" d="M88.078,20.028H73.687a1.626,1.626,0,0,0-1.242.387,1.439,1.439,0,0,0-.414,1.039,1.383,1.383,0,0,0,.5,1.066,1.582,1.582,0,0,0,1.154.3h8.8a6.354,6.354,0,0,1,4.827,1.806,5.965,5.965,0,0,1,1.717,4.148,6.047,6.047,0,0,1-1.48,3.91,6.258,6.258,0,0,1-5.064,2.07H66.966V29.627H81.534a1.753,1.753,0,0,0,1.507-.5,1.374,1.374,0,0,0,.326-.916,1.5,1.5,0,0,0-.414-1.066,1.716,1.716,0,0,0-1.419-.441H73.388c-2.668,0-4.2-.713-5.268-1.806a5.967,5.967,0,0,1,.027-8.35c1.066-1.093,2.573-1.806,5.241-1.806h14.69v5.3Z" transform="translate(-66.43 -14.292)" fill="#e22829"/>
          <path id="Path_2942" data-name="Path 2942" d="M124.532,14.72v5.3h-8.764V34.739h-5.39V20.022h-8.8v-5.3h22.952Z" transform="translate(-77.719 -14.286)" fill="#e22829"/>
          <path id="Path_2943" data-name="Path 2943" d="M187.123,33.115l-6.069-12.586a.429.429,0,0,0-.387-.238.485.485,0,0,0-.475.536V34.54H175.04V19.884a5.37,5.37,0,0,1,1.867-4.589,5.52,5.52,0,0,1,3.5-1.215c2.546,0,4.026,1.507,5.064,3.734l4.528,9.83c.115.3.265.387.5.387s.387-.088.5-.387l4.528-9.83c1.039-2.22,2.519-3.734,5.064-3.734a5.534,5.534,0,0,1,3.5,1.215,5.406,5.406,0,0,1,1.867,4.589V34.54H200.8V20.828a.489.489,0,0,0-.475-.536.429.429,0,0,0-.387.238l-6.069,12.586a4.022,4.022,0,0,1-6.748,0Z" transform="translate(-101.31 -14.08)" fill="#e22829"/>
        </g>
        <path id="Path_2944" data-name="Path 2944" d="M160.886,34.726h-5.309L152.3,26.675h-8.52v8.051H138.47V22.134h16.1a1.093,1.093,0,0,0,0-2.145h-16.1V14.68h16.313a5.387,5.387,0,0,1,.665.041,5.968,5.968,0,0,1,5.268,5.268h0a5.582,5.582,0,0,1,.041.672,6.275,6.275,0,0,1-.041.713,5.969,5.969,0,0,1-3.36,4.684l.258.625.319.781,2.967,7.264Z" transform="translate(-89.566 -14.273)" fill="#e22829"/>
      </g>
    </g>
  </g>
</svg>