<svg xmlns="http://www.w3.org/2000/svg" xmlns:xlink="http://www.w3.org/1999/xlink" width="226.481" height="39.987" viewBox="0 0 226.481 39.987">
  <defs>
    <clipPath id="clip-path">
      <rect id="Rectangle_52" data-name="Rectangle 52" width="226.481" height="39.987" fill="none"/>
    </clipPath>
  </defs>
  <g id="Group_155" data-name="Group 155" clip-path="url(#clip-path)">
    <path id="Path_156" data-name="Path 156" d="M34.024,23.73,18.385,14.523a1.1,1.1,0,0,0-1.122,0l-2.311,1.368a2.091,2.091,0,0,0,.008,3.6l2.82,1.651a4,4,0,0,1-.009,6.917l-17.184,10a1.1,1.1,0,0,0-.549.955v4.473a1.1,1.1,0,0,0,1.659.954L34.019,25.636a1.1,1.1,0,0,0,0-1.906" transform="translate(-0.012 -4.612)" fill="#fff"/>
    <path id="Path_157" data-name="Path 157" d="M10.189,19.237a1.222,1.222,0,0,1-.082,2.05L1.852,26.166A1.228,1.228,0,0,1,0,25.109V1.23A1.227,1.227,0,0,1,1.85.172l8.339,4.91a1.227,1.227,0,0,1-.023,2.129s-9.287,5.437.022,12.026" transform="translate(0 0)" fill="#e22829"/>
    <path id="Path_161" data-name="Path 161" d="M88.084,20.025H73.689a1.632,1.632,0,0,0-1.244.385,1.429,1.429,0,0,0-.415,1.037,1.366,1.366,0,0,0,.5,1.066,1.592,1.592,0,0,0,1.156.3h8.8a6.351,6.351,0,0,1,4.828,1.807,5.977,5.977,0,0,1,1.718,4.147,6.041,6.041,0,0,1-1.481,3.91,6.272,6.272,0,0,1-5.065,2.073H66.966V29.621H81.538a1.763,1.763,0,0,0,1.51-.5,1.387,1.387,0,0,0,.326-.919,1.5,1.5,0,0,0-.414-1.066,1.73,1.73,0,0,0-1.422-.444H73.393c-2.666,0-4.206-.711-5.272-1.807a5.915,5.915,0,0,1-1.688-4.177,5.99,5.99,0,0,1,1.718-4.176c1.066-1.1,2.576-1.807,5.242-1.807H88.084Z" transform="translate(-21.325 -4.726)" fill="#e22829"/>
    <path id="Path_162" data-name="Path 162" d="M124.543,14.724v5.3h-8.767v14.72h-5.39V20.025h-8.8v-5.3Z" transform="translate(-32.61 -4.726)" fill="#e22829"/>
    <path id="Path_163" data-name="Path 163" d="M187.126,33.114l-6.072-12.588a.427.427,0,0,0-.385-.237.485.485,0,0,0-.474.534V34.535h-5.154V19.874a5.39,5.39,0,0,1,1.866-4.591,5.534,5.534,0,0,1,3.495-1.215c2.547,0,4.028,1.511,5.065,3.732L190,27.634c.119.3.267.385.5.385s.385-.088.5-.385l4.532-9.833c1.037-2.221,2.518-3.732,5.065-3.732a5.533,5.533,0,0,1,3.495,1.215,5.39,5.39,0,0,1,1.866,4.591V34.535h-5.154V20.822a.484.484,0,0,0-.474-.534.426.426,0,0,0-.384.237l-6.072,12.588a4.022,4.022,0,0,1-6.753,0" transform="translate(-56.188 -4.516)" fill="#e22829"/>
    <path id="Path_164" data-name="Path 164" d="M160.89,34.731h-5.311L152.3,26.678h-8.523v8.052h-5.311v-12.6h16.1a1.092,1.092,0,0,0,0-2.145h-16.1V14.681H154.78a5.9,5.9,0,0,1,.669.038,5.976,5.976,0,0,1,5.27,5.268v0a5.734,5.734,0,0,1,.039.668,5.994,5.994,0,0,1-3.405,5.4l.257.625.317.784Z" transform="translate(-44.447 -4.712)" fill="#e22829"/>
  </g>
</svg>